<svg width="25" height="22" viewBox="0 0 25 22" fill="none" xmlns="http://www.w3.org/2000/svg">
<path d="M11.3658 21.9327C11.2904 21.9327 11.2158 21.9171 11.1468 21.8869C11.0777 21.8567 11.0157 21.8126 10.9645 21.7573L0.145184 10.0634C0.0730594 9.98542 0.0252455 9.88814 0.00759394 9.78345C-0.0100576 9.67875 0.00321869 9.57119 0.0457982 9.47392C0.0883778 9.37666 0.158413 9.2939 0.247334 9.23578C0.336254 9.17767 0.440201 9.14672 0.546454 9.14671H5.75427C5.83247 9.14673 5.90975 9.16349 5.9809 9.19589C6.05205 9.22828 6.11543 9.27554 6.16675 9.33449L9.7826 13.491C10.1734 12.6564 10.9299 11.2666 12.2573 9.57321C14.2198 7.0697 17.8701 3.38782 24.1153 0.0640753C24.236 -0.000152098 24.3764 -0.0168217 24.5089 0.0173584C24.6413 0.0515385 24.756 0.134083 24.8305 0.248694C24.905 0.363304 24.9337 0.501649 24.9111 0.63641C24.8885 0.771171 24.8161 0.892553 24.7082 0.976587C24.6844 0.995206 22.2765 2.8899 19.5052 6.36036C16.9547 9.55405 13.5644 14.7762 11.8961 21.5179C11.8668 21.6364 11.7986 21.7416 11.7024 21.8168C11.6063 21.892 11.4877 21.9329 11.3656 21.9329L11.3658 21.9327Z" fill="#EC1661"/>
</svg>
